<?xml version="1.0" encoding="utf-8"?>
<!-- Generator: Adobe Illustrator 26.2.1, SVG Export Plug-In . SVG Version: 6.00 Build 0)  -->
<svg version="1.1" id="Layer_1" xmlns="http://www.w3.org/2000/svg" xmlns:xlink="http://www.w3.org/1999/xlink" x="0px" y="0px"
	 viewBox="0 0 673.6 82.9" style="enable-background:new 0 0 673.6 82.9;" xml:space="preserve">
<style type="text/css">
	.st0{fill:url(#SVGID_1_);}
	.st1{fill:url(#SVGID_00000138563826504732737390000004880297894639552651_);}
	.st2{fill:url(#SVGID_00000160888130430266552830000012820411072941162382_);}
	.st3{fill:#3DAE2B;}
	.st4{fill:#003DA6;}
</style>
<g>
	<g>
		
			<linearGradient id="SVGID_1_" gradientUnits="userSpaceOnUse" x1="39.0278" y1="19.1505" x2="94.1832" y2="19.1505" gradientTransform="matrix(1 0 0 -1 0 84)">
			<stop  offset="7.160133e-02" style="stop-color:#70DEFF"/>
			<stop  offset="0.3389" style="stop-color:#5BCCED"/>
			<stop  offset="0.8878" style="stop-color:#269CBE"/>
			<stop  offset="1" style="stop-color:#1A92B4"/>
		</linearGradient>
		<path class="st0" d="M84.8,62.2L49.5,48.3l0,0h-1.4c-7.2-0.1-11.5,7.8-7.6,13.8l11.6,17.6l1.1,1.7l32.6-18.8l-0.2-0.1L84.8,62.2z"
			/>
		
			<linearGradient id="SVGID_00000078012733424586124160000000922419765604520333_" gradientUnits="userSpaceOnUse" x1="0" y1="59.35" x2="108.9" y2="59.35" gradientTransform="matrix(1 0 0 -1 0 84)">
			<stop  offset="0" style="stop-color:#B9F18F"/>
			<stop  offset="0.248" style="stop-color:#8DE250"/>
			<stop  offset="0.6969" style="stop-color:#40BE26"/>
			<stop  offset="0.8081" style="stop-color:#39B51C"/>
			<stop  offset="0.9987" style="stop-color:#259D00"/>
			<stop  offset="1" style="stop-color:#259D00"/>
		</linearGradient>
		<path style="fill:url(#SVGID_00000078012733424586124160000000922419765604520333_);" d="M49.5,48.3l59.4,1l-17.3-7.8L0,0
			l20.9,31.8c3,4.5,7.3,8,12.3,10L49.5,48.3L49.5,48.3L49.5,48.3z"/>
		
			<linearGradient id="SVGID_00000172428871674466237860000009394110613308074927_" gradientUnits="userSpaceOnUse" x1="47.2288" y1="28.55" x2="112.8497" y2="28.55" gradientTransform="matrix(1 0 0 -1 0 84)">
			<stop  offset="0" style="stop-color:#1E9AE9"/>
			<stop  offset="0.248" style="stop-color:#1464D0"/>
			<stop  offset="0.6969" style="stop-color:#27378F"/>
			<stop  offset="0.7865" style="stop-color:#212C8C"/>
			<stop  offset="0.9428" style="stop-color:#100F84"/>
			<stop  offset="1" style="stop-color:#090380"/>
		</linearGradient>
		<polygon style="fill:url(#SVGID_00000172428871674466237860000009394110613308074927_);" points="49.5,48.3 84.8,62.2 85.6,62.5 
			85.8,62.6 108.9,49.3 		"/>
	</g>
	<path class="st3" d="M171.2,18.7l-25.5,50.4h-8.7l-7.8-50.4h9.4l3.2,23.8c0.5,5,1.2,10.2,1.6,15.5c2.3-5.4,4.6-10.5,7-15.6
		l11.3-23.5h9.5V18.7z"/>
	<path class="st3" d="M176.4,68.9h-8.2l6.2-35.1h8.2L176.4,68.9z M183.8,27.7h-8.3l1.3-7.8h8.2L183.8,27.7z"/>
	<path class="st3" d="M185,60.6c0-0.7,0.1-1.5,0.3-2h7.5c-0.1,0.5-0.1,0.9-0.1,1.3c0,2.4,1.7,3.4,5.5,3.4h2c4.7,0,7-2.3,7-5.4
		c0-2.3-1.6-3.2-5.4-3.8c-9.3-1.3-13-3.5-13-8.7c0-8.3,5.9-12.1,14.7-12.1h0.8c8.5,0,12.6,3.6,12.6,9c0,0.7,0,1.3-0.1,1.9h-7.5
		c0.1-0.5,0.1-0.9,0.1-1.3c0-2.4-1.9-3.2-5.9-3.2h-0.9c-3.9,0-5.6,2-5.6,4.8c0,2,1.6,2.6,6.3,3.4c8.6,1.2,12.2,3.8,12.2,9
		c0,8.9-6.7,12.9-16.3,12.9h-1.5C189.2,69.7,185,66.1,185,60.6z"/>
	<path class="st3" d="M228.9,68.9h-8.2l6.2-35.1h8.2L228.9,68.9z M236.3,27.7h-8.3l1.3-7.8h8.2L236.3,27.7z"/>
	<path class="st3" d="M250.8,57.5c-0.1,0.5-0.1,0.9-0.1,1.5c0,2.4,1.5,3.4,4.8,3.4h3.5l-1.3,7.4h-4.6c-7.7,0-10.9-2.6-10.9-7.9
		c0-0.8,0.1-1.7,0.3-3.2l3.2-18.1h-4.4l1.1-6.6h4.4l1.9-11h8.2l-1.9,11h7.8l-1.1,6.6h-7.8L250.8,57.5z"/>
	<path class="st3" d="M298.6,44.7c0,0.9-0.1,1.9-0.3,2.8l-1.6,9.1c-1.5,7.8-7.9,13-16.8,13h-2.3c-7.9,0-12.6-4.6-12.6-11.2
		c0-0.8,0.1-1.6,0.3-2.6l1.6-9.1c1.5-8.3,7.8-13.7,16.8-13.7h2.3C293.8,33.2,298.6,37.9,298.6,44.7z M283,40.3
		c-4.3,0-7.3,2.8-7.9,7.3l-1.6,8.6c-0.1,0.5-0.1,1.2-0.1,1.6c0,3.1,2.2,4.7,5.6,4.7h1.6c4.2,0,7.1-2.7,7.9-6.6l1.5-8.6
		c0.1-0.7,0.3-1.3,0.3-1.9c0-3.5-2.2-5-5.6-5H283V40.3z"/>
	<path class="st3" d="M327.7,33.2l-1.3,7.7h-3.9c-3.9,0-7.5,2.6-8.3,7.1l-3.8,21h-8.2l6.2-35.1h6.9l-0.3,4.2
		c2.2-3.2,5.9-4.8,10.5-4.8H327.7z"/>
	<path class="st3" d="M327.5,60.6c0-0.7,0.1-1.5,0.3-2h7.5c-0.1,0.5-0.1,0.9-0.1,1.3c0,2.4,1.7,3.4,5.5,3.4h2c4.7,0,7-2.3,7-5.4
		c0-2.3-1.6-3.2-5.4-3.8c-9.3-1.3-13-3.5-13-8.7c0-8.3,5.9-12.1,14.7-12.1h0.8c8.5,0,12.6,3.6,12.6,9c0,0.7,0,1.3-0.1,1.9h-7.5
		c0.1-0.5,0.1-0.9,0.1-1.3c0-2.4-1.9-3.2-5.9-3.2H345c-3.9,0-5.6,2-5.6,4.8c0,2,1.6,2.6,6.3,3.4c8.6,1.2,12.2,3.8,12.2,9
		c0,8.9-6.7,12.9-16.3,12.9h-1.5C331.7,69.7,327.5,66.1,327.5,60.6z"/>
	<path class="st4" d="M365.6,55.8c0-1.2,0.1-2.4,0.3-3.6l3-16.8c1.9-10.6,10.1-17.3,21-17.3h2.6c8.7,0,14,4.7,14,12.1
		c0,0.9-0.1,2.2-0.3,3.2h-8.9c0.1-0.7,0.1-1.3,0.1-1.9c0-3.8-2.4-5.4-6.3-5.4h-2c-6,0-10.4,4.2-11.4,10.1l-2.7,15.7
		c-0.3,0.9-0.3,1.9-0.3,2.7c0,4.8,3,7,7.8,7h1.9c4.7,0,8.3-2.8,9-7h8.7c-1.6,9.7-8.7,15.1-18.6,15.1h-2.6
		C371.2,69.7,365.6,64.2,365.6,55.8z"/>
	<path class="st4" d="M442.6,44.7c0,0.9-0.1,1.9-0.3,2.8l-1.6,9.1c-1.5,7.8-7.9,13-16.8,13h-2.3c-7.9,0-12.6-4.6-12.6-11.2
		c0-0.8,0.1-1.6,0.3-2.6l1.6-9.1c1.5-8.3,7.8-13.7,16.8-13.7h2.3C437.8,33.2,442.6,37.9,442.6,44.7z M427,40.3
		c-4.3,0-7.3,2.8-7.9,7.3l-1.6,8.6c-0.1,0.5-0.1,1.2-0.1,1.6c0,3.1,2.2,4.7,5.6,4.7h1.6c4.2,0,7.3-2.7,7.9-6.6l1.5-8.6
		c0.1-0.7,0.3-1.3,0.3-1.9c0-3.5-2.2-5-5.6-5H427V40.3z"/>
	<path class="st4" d="M481.6,33.8l-19.2,35.1h-7.9l-6.9-35.1h8.5l2.6,15.3c0.5,3.6,0.9,6.7,1.3,10.4c1.6-3.5,3.1-6.7,4.8-10.2
		l8.1-15.6h8.7V33.8z"/>
	<path class="st4" d="M512.9,44.3c0,0.9-0.1,1.9-0.3,3l-1.3,7.3h-22l-0.5,2.7c-0.1,0.7-0.3,1.5-0.3,2c0,2.7,1.9,4,5.1,4h3
		c3.5,0,5.5-2.2,5.9-4.4h7.7c-1.2,6.7-6.7,10.9-14.3,10.9h-3.4c-7.5,0-12-4.3-12-10.6c0-0.8,0.1-1.6,0.3-2.4l1.7-9.8
		c1.5-8.5,7.8-13.7,16.1-13.7h2.4C508.5,33.2,512.9,37.6,512.9,44.3z M504.6,48.5l0.3-1.6c0.1-0.8,0.3-1.6,0.3-2.3
		c0-3.4-2.2-4.8-5.2-4.8h-1.6c-4.3,0-7,3.1-7.7,7.7l-0.1,0.9h14.1V48.5z"/>
	<path class="st4" d="M541.4,33.2l-1.3,7.7h-3.9c-3.9,0-7.5,2.6-8.3,7.1l-3.6,21H516l6.2-35.1h6.9l-0.3,4.2
		c2.2-3.2,5.9-4.8,10.5-4.8H541.4z"/>
	<path class="st4" d="M573.8,42.6c0,0.8-0.1,1.5-0.3,2.3l-4.3,24.1h-6.7l0.3-3.8c-2.3,2.8-5.6,4.4-9.5,4.4h-2.4
		c-6.3,0-10.2-3.5-10.2-8.9c0-7.7,6-12.5,14.3-12.5h9.9l0.7-3.8c0.1-0.4,0.1-0.8,0.1-1.2c0-2.3-1.6-3.2-4.3-3.2h-2.7
		c-3.4,0-5.5,2.2-5.9,4.6h-7.8c1.2-7.3,6.7-11.4,14.1-11.4h4.2C569.8,33.2,573.8,36.9,573.8,42.6z M563.6,56.4L564,54h-9.3
		c-3.8,0-5.8,2.8-5.8,5.8c0,2.2,1.6,3.2,4.2,3.2h2.4C559.3,63.2,562.8,60.6,563.6,56.4z"/>
	<path class="st4" d="M613.6,33.8L607.3,70c-1.5,7.9-7.5,12.9-15.6,12.9h-3.9c-6.3,0-10.4-3.9-10.4-9.3c0-0.7,0-1.3,0.1-2.2h7.7
		c-0.1,0.5-0.1,0.9-0.1,1.3c0,2.3,1.5,3.5,4.4,3.5h2.3c3.8,0,6.7-2.6,7.4-6.3l1.1-5.9c-2.3,2.4-5.5,3.9-9.1,3.9H590
		c-6.6,0-10.6-4.4-10.6-10.9c0-0.9,0.1-2,0.3-3.1l1.3-7.9c1.3-7.8,7-12.8,14.4-12.8h1.5c4.4,0,7.5,2.2,8.7,5.8l1.5-5h6.6V33.8z
		 M603,45.9c0-3.5-1.6-5.5-5.2-5.5H596c-3.5,0-6.5,2.7-7.1,7l-1.2,6.6c-0.1,0.8-0.3,1.5-0.3,2.2c0,3.1,1.5,4.8,4.7,4.8h1.7
		c3.8,0,7.3-2.7,8.1-7.4l0.9-5.2C603,47.4,603,46.6,603,45.9z"/>
	<path class="st4" d="M649.3,44.3c0,0.9-0.1,1.9-0.3,3l-1.3,7.3h-22l-0.5,2.7c-0.1,0.7-0.3,1.5-0.3,2c0,2.7,1.9,4,5.1,4h3
		c3.5,0,5.5-2.2,5.9-4.4h7.7c-1.2,6.7-6.7,10.9-14.3,10.9h-3.4c-7.5,0-12-4.3-12-10.6c0-0.8,0.1-1.6,0.3-2.4l1.7-9.8
		c1.5-8.5,7.8-13.7,16.1-13.7h2.4C644.8,33.2,649.3,37.6,649.3,44.3z M640.9,48.5l0.3-1.6c0.1-0.8,0.3-1.6,0.3-2.3
		c0-3.4-2.2-4.8-5.2-4.8h-1.6c-4.3,0-7,3.1-7.7,7.7l-0.1,0.9h14.1V48.5z"/>
	<path class="st4" d="M655.4,35.5c0-1.6,0.4-3,1.2-4.4c0.8-1.4,1.8-2.4,3.2-3.4c1.4-0.8,3-1.2,4.6-1.2c1.6,0,3,0.4,4.4,1.2
		c1.4,0.8,2.4,1.8,3.4,3.2c0.8,1.4,1.2,3,1.2,4.6s-0.4,3-1.2,4.4c-0.8,1.4-1.8,2.4-3.2,3.4c-1.4,0.8-3,1.2-4.6,1.2
		c-1.6,0-3.2-0.4-4.6-1.2c-1.4-0.8-2.4-2-3.2-3.4C655.8,38.5,655.4,37.1,655.4,35.5z M657,35.5c0,1.4,0.4,2.6,1,3.8
		c0.6,1.2,1.6,2,2.8,2.8c1.2,0.6,2.4,1,3.8,1c1.4,0,2.6-0.4,3.8-1c1.2-0.6,2-1.6,2.8-2.8c0.8-1.2,1-2.4,1-3.8s-0.4-2.6-1-3.8
		c-0.6-1.2-1.6-2-2.8-2.8c-1.2-0.6-2.4-1-3.8-1c-1.4,0-2.6,0.4-3.8,1c-1.2,0.6-2,1.6-2.8,2.8C657.2,32.9,657,34.1,657,35.5z
		 M668.6,33.3c0,0.6-0.2,1.2-0.6,1.8s-0.8,0.8-1.6,1.2l2.6,4.4h-2.4l-2-3.8h-1v3.8h-2.2V30h3.2C667.1,30.2,668.6,31.2,668.6,33.3z
		 M663.5,35.1h0.8c0.6,0,1.2-0.2,1.6-0.4c0.4-0.2,0.6-0.6,0.6-1.2s-0.2-1-0.6-1.2c-0.4-0.2-0.8-0.4-1.6-0.4h-0.8V35.1z"/>
</g>
<g id="Labels">
</g>
<g id="Labels_00000168087639109049923800000000796634259326997385_">
</g>
</svg>
